# xmcd
#
# Track frame offsets:
#	150
#	20221
#	42520
#	64613
#	84636
#	100424
#	124349
#	144253
#	174122
#	188915
#	215995
#	249865
#	270949
#	292438
#	311220
#	329072
#
# Disc length: 4642 seconds
#
# Revision: 5
# Processed by: cddbd v1.5.2PL0 Copyright (c) Steve Scherf et al.
# Submitted via: audiograbber 1.83.01
#
DISCID=fd122010
DTITLE=Saxon - Strong Arm Of The Law (EMI Remaster)
DYEAR=1980
DGENRE=Heavy Metal
TTITLE0=Heavy Metal Thunder
TTITLE1=To Hell And Back Again
TTITLE2=Strong Arm Of The Law
TTITLE3=Taking Your Chances
TTITLE4=20,000 Ft
TTITLE5=Hungry Years
TTITLE6=Sixth Form Girls
TTITLE7=Dallas 1 PM
TTITLE8=20,000 Ft (Live BBC 1982)
TTITLE9=Dallas 1 PM (Live BBC 1982)
TTITLE10=The Eagle Has Landed (Live BBC 1982)
TTITLE11=747 (Strangers In The Night) (Live BBC 1982)
TTITLE12=To Hell And Back Again (Alternate Version)
TTITLE13=20,000 Ft (Abbey Road Mix 2009)
TTITLE14=Mandy (Early Version Of Sixth Form Girls)
TTITLE15=Heavy Metal Thunder (Abbey Road Mix 2009)
EXTD=YEAR: 1980
EXTT0=
EXTT1=
EXTT2=
EXTT3=
EXTT4=
EXTT5=
EXTT6=
EXTT7=
EXTT8=
EXTT9=
EXTT10=
EXTT11=
EXTT12=
EXTT13=
EXTT14=
EXTT15=
PLAYORDER=
